<svg xmlns="http://www.w3.org/2000/svg" viewBox="0 0 1866.6218 474.0478">
  <defs>
    <style>
      .cls-1 {
        fill: #0010d2;
      }
    </style>
  </defs>
  <g id="Layer_2" data-name="Layer 2">
    <g id="Layer_1-2" data-name="Layer 1">
      <g>
        <g>
          <path class="cls-1" d="M267.8634,263.2356c14.2047-19.9222,27.9043-38.9926,41.4483-58.1729,12.7523-18.0594,25.4967-36.1289,37.89-54.4338,3.0627-4.5234,6.6841-5.9679,11.745-5.9323,16.2314.1142,32.4645-.0086,48.6962.0844,2.3741.0136,5.46-1.1512,6.9668,1.374,1.7677,2.9627-.6666,5.5935-2.2377,7.7874-16.6949,23.3117-33.6593,46.431-50.294,69.7853-17.9549,25.2076-36.4244,50.0723-54.0679,75.4472a107.2566,107.2566,0,0,1-19.5169,21.2578c-18.9126,15.7738-43.6341,9.5161-58.56-13.2233-20.4082-31.0908-40.6925-62.2688-61.5627-93.048-11.7055-17.2634-29.5176-22.9538-49.55-22.9572q-53.0251-.0088-106.05.13a59.7215,59.7215,0,0,1-6.4831.03c-4.8221-.5237-5.22-2.6272-2.3829-6.3861,7.9454-10.5258,15.8619-21.083,23.4315-31.8791,4.2941-6.1244,9.3038-8.8232,17.1175-8.5334,34.2105,1.2694,68.5955-2.3122,102.6567,2.3238,29.7426,4.0481,53.4423,18.2165,70.6171,43.8776C233.795,214.7757,248.8783,239.55,267.8634,263.2356Z"/>
          <path d="M69.6967,324.8323c-19.8136,0-39.6322-.2545-59.438.1357-7.0976.14-10.2235-1.2657-10.1216-9.3615.3947-31.3358.23-62.6827-.1342-94.0208-.0788-6.7828,1.394-9.7786,8.8822-9.4523,12.5841.5486,25.23.5411,37.8118-.0476,7.4518-.3486,9.0973,2.4752,8.8976,9.3593-.47,16.1979.0224,32.4217-.2859,48.6272-.12,6.2949,1.5136,8.97,8.4735,8.8083,19.4429-.4523,39.041,1.2774,58.3189-.5645,21.03-2.0093,42.3748-5.7214,48.3068-32.2029,1.2073-5.39,5.7662-2.2729,7.9463.7874,9.3331,13.1013,18.47,26.3426,27.7137,39.5074,1.9975,2.8446,1.7315,4.9581-1.0021,7.3958-12.1664,10.8495-26.0718,18.4844-41.2655,24.306-15.8174,6.06-32.1206,6.9806-48.7127,6.8233-15.129-.1434-30.26-.03-45.3908-.03Z"/>
          <path d="M346.09,49.0453C234.41-4.2457,131.476,16.8576,55.6437,111.6209c-5.1053,6.38-9.9962,9.6034-18.2883,9.0922-11.0466-.681-22.167-.1682-37.16-.1682C45.4051,47.8261,106.85,7.8814,188.605.93,247.5111-4.078,300.8867,11.0191,346.09,49.0453Z"/>
          <path d="M5.5716,350.8348c28.3108-3.9078,47.0706,1.933,69.4755,22.7636,49.4491,45.9744,111.545,60.8107,179.0249,41.0526,6.7986-1.9907,13.1917-7.1055,21.1724-4.3861C211.935,462.0166,68.8363,451.5488,5.5716,350.8348Z"/>
          <path class="cls-1" d="M125.8163,63.4224C217.8871,8.0507,338.2851,32.1095,398.571,120.66c-23.4282-1.8384-44.1467,7.0053-63.0022-14.5992C306.5223,72.7792,266.8133,57.418,223.3439,52.997c-27.4182-2.7886-54.71-.9268-80.6627,10.2141C137.4767,65.4452,131.6068,66.7594,125.8163,63.4224Z"/>
          <path class="cls-1" d="M425.6176,172.4124c-12.2925,23.5258-33.9558,36.7889-34.5111,59.783-.8557,35.4312-8.8366,68.9251-22.1986,101.27-.9456.8973.565-1.0933,0,0-58.359,112.9025-206.2865,155.3253-313.5207,84.1208-4.173-2.7712-8.4025-6.03-14.3-4.2554,109.2477,104.68,312.0462,72.3558,375.8628-84.2278C438.0545,279.77,442.8754,229.5516,425.6176,172.4124Z"/>
        </g>
        <g>
          <g>
            <path class="cls-1" d="M669.9792,206.7363q0,32.9685-21.1943,57.19-18.73,21.6446-52.5928,22.7647-6.5054.2226-35.7725.2236-5.4946,0-16.54-.3359t-16.54-.3369q-3.2535,0-3.252-2.5791,0-12.334.9531-37.0615.9514-24.7259.9532-37.0616,0-12.8935-.9532-38.6313-.9536-25.7358-.9531-38.5195,0-2.3548,3.252-2.8033,7.9614-.8964,26.1284-.8969,34.5381,0,44.7431,1.0087,26.5767,2.6918,41.6036,13.4571,14.1283,10.092,22.3154,28.2583A84.07,84.07,0,0,1,669.9792,206.7363Zm-42.9492,0q0-18.95-11.3262-30.95-11.4375-12.4475-30.2773-12.4473-17.269,0-17.2686,4.5977,0,6.6182-.2246,19.9043-.2256,13.2891-.2246,19.9048,0,6.5046.2246,19.5679.2226,13.0649.2246,19.68,0,4.8224,17.9414,4.8223,19.3989,0,30.502-12.8965Q627.0295,226.6989,627.03,206.7363Z"/>
            <path class="cls-1" d="M728.0661,234.771q0,8.187.3369,24.39.3369,16.2055.336,24.2783,0,2.3541-2.8028,2.8028-3.8143.6738-17.1572.6728-13.4575,0-17.2695-.6728-2.4683-.4468-3.0274-1.458a12.6761,12.6761,0,0,1-.2246-3.3633q0-7.7388.336-23.2695.3369-15.5289.3369-23.38,0-31.8465-2.4668-50.6865c-.1514-1.1949-.2246-1.98-.2246-2.355q0-2.242,3.0273-2.2427,3.1392,0,9.5879.6728t9.7.6729q3.2505,0,9.7559-.5605,6.5024-.56,9.7558-.5611,2.6924,0,2.6914,2.2427,0,.45-.2236,2.1309A457.5827,457.5827,0,0,0,728.0661,234.771Zm2.916-83.3189q0,19.5124-21.9795,19.5122-9.4189,0-15.5869-4.934-6.728-5.3826-6.7285-14.5782a17.628,17.628,0,0,1,6.9531-14.3535,23.6947,23.6947,0,0,1,15.3623-5.1582,23.0531,23.0531,0,0,1,15.1387,5.27A17.63,17.63,0,0,1,730.9821,151.4521Z"/>
            <path class="cls-1" d="M861.3991,257.0864q0,31.9586-13.457,45.8643-13.9057,14.24-46.2012,14.2412-9.4189,0-25.68-3.0274-20.7465-3.8143-20.7451-8.9717,0-2.1312,4.8223-21.9785.7822-3.1377,2.4668-3.14a5.0023,5.0023,0,0,1,1.2334.4482q17.2675,8.5239,31.959,8.5225a35.1528,35.1528,0,0,0,16.0361-4.0371q9.643-4.8194,9.6436-12.11v-7.5136q-11.4375,10.765-29.38,10.7656-21.0835,0-34.65-15.1387-13.1207-14.5767-13.12-35.8843,0-21.4175,12.5595-35.5478,13.1192-14.6888,34.3135-14.69,16.9322,0,25.9043,12.1109,1.793,2.4683,2.4668,2.4673,1.0094,0,1.01-4.0371,0-8.97,2.0185-8.9712,1.7916,0,19.3994,1.8505,17.6046,1.85,18.2784,2.0743a2.7764,2.7764,0,0,1,1.9062,2.9155q0,7.7381-.5039,23.1006-.5054,15.3646-.5049,23.1006,0,4.5988.1123,13.7929Q861.3968,252.49,861.3991,257.0864Zm-38.8-31.0625a20.4262,20.4262,0,0,0-5.4394-14.1855,18.3558,18.3558,0,0,0-27.2491.1123,20.8264,20.8264,0,0,0-5.4384,14.2978,19.99,19.99,0,0,0,5.5507,14.1289,17.7874,17.7874,0,0,0,13.5127,5.9434,17.5493,17.5493,0,0,0,13.6241-6.0557A20.6219,20.6219,0,0,0,822.5993,226.0239Z"/>
            <path class="cls-1" d="M922.2888,234.771q0,8.187.3369,24.39.3369,16.2055.3359,24.2783,0,2.3541-2.8027,2.8028-3.8145.6738-17.1572.6728-13.4576,0-17.27-.6728-2.4682-.4468-3.0273-1.458a12.6713,12.6713,0,0,1-.2246-3.3633q0-7.7388.3359-23.2695.3369-15.5289.3369-23.38,0-31.8465-2.4668-50.6865c-.1513-1.1949-.2246-1.98-.2246-2.355q0-2.242,3.0274-2.2427,3.139,0,9.5879.6728t9.7.6729q3.25,0,9.7558-.5605,6.5025-.56,9.7559-.5611,2.6924,0,2.6914,2.2427,0,.45-.2237,2.1309A457.5848,457.5848,0,0,0,922.2888,234.771Zm2.916-83.3189q0,19.5124-21.98,19.5122-9.4189,0-15.5869-4.934-6.7281-5.3826-6.7285-14.5782a17.628,17.628,0,0,1,6.9531-14.3535,23.6945,23.6945,0,0,1,15.3623-5.1582,23.0533,23.0533,0,0,1,15.1387,5.27A17.63,17.63,0,0,1,925.2048,151.4521Z"/>
            <path class="cls-1" d="M1018.9519,253.3852a92.1024,92.1024,0,0,1-.8409,10.2051,91.9148,91.9148,0,0,0-.8408,10.0361q0,3.1963-.6728,4.0928a13.54,13.54,0,0,1-3.7,2.5791,65.3874,65.3874,0,0,1-32.0723,7.9619q-32.4083,0-32.4072-24.7822,0-7.4019.5605-22.26t.5606-22.2587q0-4.9336-5.7188-4.9341h-1.458c-.6728.0752-1.16.1118-1.458.1118q-4.2627,0-4.2607-3.0274,0-1.793.28-5.4951.2784-3.7.28-5.4946,0-2.3547-.28-7.1768-.2812-4.82-.28-7.1767,0-2.2419,7.1767-2.4673,4.0371-.11,4.3731-2.2427a82.7989,82.7989,0,0,0,.4482-13.4565q-.4482-14.4662-.4482-13.793,0-13.0071,2.4668-13.0078a40.0415,40.0415,0,0,1,8.6347,1.3457,80.1812,80.1812,0,0,0,8.8594,1.6816q5.7188.786,17.2686,2.1309,2.8022.2263,2.8037,1.9062,0,4.4869-.7285,13.5689-.731,9.0828-.73,13.6807,0,5.496,3.2519,5.4951,3.9243,0,11.8867-.3364t11.9991-.3365q2.4652,0,2.4668,1.6817,0,2.581-.5606,7.7378-.5625,5.1591-.56,7.7373,0,2.6916.1123,7.85.11,5.16.1123,7.85,0,2.3547-3.252,2.3545-2.2455,0-7.5137-.168-5.2719-.1685-7.5136-.1685h-8.41q-1.6816,0-1.6816,4.9341v7.9619q.11,5.3826.1123,7.9619,0,9.42,2.13,13.0074,3.0278,4.8237,11.8867,4.8222a36.2438,36.2438,0,0,0,8.0185-1.289,36.0538,36.0538,0,0,1,7.3448-1.29Q1018.9528,250.9184,1018.9519,253.3852Z"/>
            <path class="cls-1" d="M1143.4255,230.1733q0,8.6359,1.0088,25.6787,1.0092,17.048,1.01,25.5684,0,4.4853-3.9248,4.8213-13.9057,1.0092-31.8476,1.01-2.1313,0-2.8594-6.4482-.7309-6.4469-1.7383-6.56a10.3505,10.3505,0,0,0-2.3545,1.9063q-12.561,12.6723-26.913,12.6709-21.8673,0-36.2208-17.2686-13.5687-16.1484-13.5683-38.5757,0-25.9035,14.0166-41.7153,14.5767-16.3711,39.9219-16.3721,17.603,0,27.81,12.335c.2979.375.5606.561.7852.561q1.0092,0,2.2988-5.4389,1.2876-5.4375,3.084-5.4385,4.1471,0,15.8115,2.355a160.5258,160.5258,0,0,1,15.9239,3.8125q1.6817.673,1.6816,1.7944a20.2032,20.2032,0,0,1-.3359,2.3545A246.4422,246.4422,0,0,0,1143.4255,230.1733Zm-36.1084.6729q0-9.53-5.999-15.7554-6.0015-6.2241-15.6436-6.2236-9.6459,0-15.5869,6.1674-5.9458,6.1686-5.9434,15.8116a21.6415,21.6415,0,0,0,6.2793,15.5869,20.4041,20.4041,0,0,0,15.251,6.5039q9.53,0,15.5869-6.2236T1107.3171,230.8462Z"/>
            <path class="cls-1" d="M1206.5593,218.7348q0,30.6138.2246,46.9854,0,2.5811.3369,8.8594.3354,5.7188.3359,8.8593,0,2.3541-2.8037,2.8028-5.0463.8964-18.166.8974-13.4561,0-17.1572-.8974a3.3334,3.3334,0,0,1-2.8037-3.0274v-4.8222q0-9.9786.2246-29.8848.2226-19.9029.2246-29.7725,0-47.0976.1113-42.9487a354.4113,354.4113,0,0,0-2.8027-42.7246,11.265,11.265,0,0,1-.2246-1.9062q0-2.4654,2.916-2.4668h40.0332q2.8008,0,2.5791,2.3544l-.1123,2.0186Q1206.5574,181.5054,1206.5593,218.7348Z"/>
            <path d="M1339.9089,286.6909q-15.1392,0-17.2695-.4492-2.1314-.4468-3.5879-3.252-12.7838-25.23-25.68-50.5737-20.2983-40.7065-20.2969-46.0889,0-8.8572.6162-26.6328.6153-17.7721.6172-26.6328,0-4.1469,2.2422-4.1489,6.728,0,20.4092.56,13.68.5625,20.5215.5606,2.8022,0,2.8037,2.355,0,9.0834-1.29,27.3056-1.29,18.2241-1.289,27.3057,0,6.9543,22.7636,49.6772,6.1656-11.1019,14.0176-27.25,10.5381-21.7543,10.541-26.689,0-8.184-.2246-24.6142-.2256-16.4268-.2246-24.6143,0-3.0277,1.01-3.3642h3.5879q6.167,0,18.6709-.6167,12.5023-.6153,18.6718-.6167,3.3633,0,3.3633,2.6914,0,8.6359-.28,26.0718-.2812,17.4381-.28,26.1845,0,6.9545-22.0908,51.1348Q1378.4846,250.9187,1362,282.99a10.3586,10.3586,0,0,1-1.5137,2.7481,8.9683,8.9683,0,0,1-2.8593.5039Q1351.908,286.6884,1339.9089,286.6909Z"/>
            <path d="M1467.1853,234.771q0,8.187.3369,24.39.3369,16.2055.3359,24.2783,0,2.3541-2.8027,2.8028-3.8145.6738-17.1573.6728-13.4574,0-17.27-.6728-2.4683-.4468-3.0273-1.458a12.6713,12.6713,0,0,1-.2246-3.3633q0-7.7388.3359-23.2695.3369-15.5289.3369-23.38,0-31.8465-2.4668-50.6865c-.1513-1.1949-.2246-1.98-.2246-2.355q0-2.242,3.0274-2.2427,3.139,0,9.5878.6728t9.7.6729q3.25,0,9.7559-.5605,6.5025-.56,9.7559-.5611,2.6923,0,2.6914,2.2427,0,.45-.2237,2.1309A457.5848,457.5848,0,0,0,1467.1853,234.771Zm2.916-83.3189q0,19.5124-21.98,19.5122-9.4189,0-15.5869-4.934-6.7281-5.3826-6.7285-14.5782a17.628,17.628,0,0,1,6.9531-14.3535,23.6943,23.6943,0,0,1,15.3623-5.1582,23.0535,23.0535,0,0,1,15.1387,5.27A17.63,17.63,0,0,1,1470.1013,151.4521Z"/>
            <path d="M1554.4294,195.5224q0,1.1221-1.6826,3.0279a25.8792,25.8792,0,0,0-6.2793-.7852,19.9584,19.9584,0,0,0-11.1016,2.9155,10.6367,10.6367,0,0,0-5.3828,9.5318q0,3.9265,5.7188,9.98,8.6337,9.0836,10.6533,12.2232a32.2008,32.2008,0,0,1,5.7187,18.2778,36.6369,36.6369,0,0,1-2.2422,12.1114q-2.581,7.0648-6.5039,10.3164a77.5922,77.5922,0,0,1-19.4,12.1113q-12,5.1563-22.0908,5.1582-2.2455,0-10.0371-12.167-7.7945-12.1656-7.793-14.8584,0-1.0094,1.2334-1.2334,7.8472-1.456,15.8116-2.916,9.8656-3.1377,9.8681-10.3164,0-4.9336-5.7187-11.438-10.2055-11.3247-10.6533-11.9985a29.0117,29.0117,0,0,1-5.72-17.045q0-16.8207,17.0459-28.5952a56.7524,56.7524,0,0,1,32.6319-10.4287q1.793,0,8.8584,12.0547T1554.4294,195.5224Z"/>
            <path d="M1612.0681,234.771q0,8.187.3369,24.39.3369,16.2055.3359,24.2783,0,2.3541-2.8027,2.8028-3.8145.6738-17.1572.6728-13.4576,0-17.27-.6728-2.4683-.4468-3.0273-1.458a12.6713,12.6713,0,0,1-.2246-3.3633q0-7.7388.3359-23.2695.3369-15.5289.3369-23.38,0-31.8465-2.4668-50.6865c-.1513-1.1949-.2246-1.98-.2246-2.355q0-2.242,3.0274-2.2427,3.1391,0,9.5879.6728t9.7.6729q3.25,0,9.7558-.5605,6.5025-.56,9.7559-.5611,2.6924,0,2.6914,2.2427,0,.45-.2237,2.1309A457.5848,457.5848,0,0,0,1612.0681,234.771Zm2.916-83.3189q0,19.5124-21.9795,19.5122-9.4189,0-15.5869-4.934-6.7281-5.3826-6.7285-14.5782a17.628,17.628,0,0,1,6.9531-14.3535,23.6943,23.6943,0,0,1,15.3623-5.1582,23.0535,23.0535,0,0,1,15.1387,5.27A17.63,17.63,0,0,1,1614.9841,151.4521Z"/>
            <path d="M1741.5866,231.07q0,25.5666-15.6426,41.4907t-41.0986,15.9238q-24.6723,0-40.5947-15.6992-15.9243-15.6987-15.9229-40.37,0-26.0142,15.25-42.22,15.2491-16.2027,41.2676-16.2036,25.34,0,41.042,15.8672Q1741.5861,205.7286,1741.5866,231.07Zm-36.7812,0a24.1518,24.1518,0,0,0-5.4942-15.6431,17.4827,17.4827,0,0,0-14.2422-6.7846,18.0536,18.0536,0,0,0-14.5771,6.9526,25.0963,25.0963,0,0,0,0,31.0615,18.64,18.64,0,0,0,29.043,0A23.9743,23.9743,0,0,0,1704.8054,231.07Z"/>
            <path d="M1866.6218,282.99q0,3.0279-3.14,3.4766-3.1405.4467-16.372.4482-14.13,0-17.4942-.6728t-3.3642-4.5977q0-5.269.3369-15.9238.3354-10.6509.3359-16.0352,0-4.1469-.2236-12.3911-.2271-8.2419-.2246-12.3911,0-15.3625-13.3448-15.3633-4.3725,0-10.2041,3.813-6.2812,4.2627-6.28,8.41v60.5542q0,3.7-3.4756,4.1494-3.9273.4467-16.0361.4482-13.1207,0-17.045-.6728-3.4774-.56-3.4765-3.7,0-8.7466.1123-26.3526.11-17.6044.1123-26.4643,0-27.9222-4.3731-43.8462a7.9076,7.9076,0,0,1-.2246-1.6816,2.4589,2.4589,0,0,1,1.6817-2.4673q7.0648-.783,18.84-2.4668,17.83-3.4746,20.0723-3.4766,1.2333,0,1.9062,7.5693t1.9063,7.5694q-1.235,0,12.0556-7.7935,13.2876-7.793,23.2686-7.7934,14.24,0,23.7725,6.728,10.6523,7.7373,10.6533,21.5308v35.7719q0,7.2906.1123,21.8106Q1866.6193,275.7031,1866.6218,282.99Z"/>
          </g>
          <g>
            <path d="M551.9177,390.227q0,10.1236-8.5274,17.3526a36.4261,36.4261,0,0,1-18.2006,8.1279,5.4653,5.4653,0,0,1-.648.05q-1.1476,0-5.0864-7.0059T515.5158,400.2q0-.5478.7481-.6983a52.7549,52.7549,0,0,0,9.5742-2.7919q5.1855-2.5929,5.186-7.68,0-3.24-3.3911-7.23-5.8842-6.7822-6.3823-7.53a20.3026,20.3026,0,0,1-3.4409-11.4688q0-9.1245,8.4272-15.1591a37.8731,37.8731,0,0,1,16.9043-6.4825c.3652-.0322.6485-.05.8477-.05q.747,0,1.1963,1.1973,1.2963,3.64,6.0341,13.1641a1.1786,1.1786,0,0,1,.15.499q0,.8481-.8975.8476a9.8646,9.8646,0,0,1-1.3467-.15,10.062,10.062,0,0,0-1.4463-.15,11.8073,11.8073,0,0,0-6.2822,1.6456,5.8584,5.8584,0,0,0-3.2412,5.2861q0,3.0425,3.59,7.4795,6.3325,7.9789,6.6319,8.3769A20.0333,20.0333,0,0,1,551.9177,390.227Z"/>
            <path d="M639.53,411.32q0,1.7462-1.4961,1.9443t-7.38.2a54.5874,54.5874,0,0,1-7.58-.3q-1.4955-.2988-1.4961-2.4433,0-2.2926.15-6.8565.1494-4.5615.1494-6.8564,0-8.7246-.1992-12.416-.3-5.9342-5.6347-5.9336a7.2122,7.2122,0,0,0-4.6631,1.97,6.6327,6.6327,0,0,0-2.5674,4.3623q-.2007,2.0948-.2,12.2676,0,2.3438.15,7.1054t.1494,7.1553q0,1.6465-1.4463,1.6455H592.3571q-1.3959,0-1.3955-2.0439,0-2.3437.1494-7.0313.1494-4.686.1495-7.081,0-1.8443-.1-5.585t-.1-5.6347q0-7.13-5.4355-7.13a8.6819,8.6819,0,0,0-4.7373,1.6953q-2.7935,1.8458-2.792,3.89,0,4.5381.05,13.5625.0483,9.0264.05,13.5137a2.4863,2.4863,0,0,1-.2988,1.5459,2.8161,2.8161,0,0,1-1.5459.3984q-2.2442.1993-7.0811.2-3.1421,0-7.1308-.3a2.6132,2.6132,0,0,1-1.4209-.3486,2.8431,2.8431,0,0,1-.2246-1.4961q0-3.9888.05-11.9424t.05-11.9433a159.7431,159.7431,0,0,0-1.1963-18.3995,5.8827,5.8827,0,0,1-.1-.8974,1.1306,1.1306,0,0,1,.6972-1.1475,17.1669,17.1669,0,0,1,4.14-.748q3.74-.3472,4.4375-.4483.498-.1,3.9394-1.0478a15.1408,15.1408,0,0,1,3.94-.6973q.9462,0,.9971,3.4649.0483,3.4673.3984,3.4658a5.0015,5.0015,0,0,0,1.1475-.6983,47.2136,47.2136,0,0,1,7.081-4.7871,18.9788,18.9788,0,0,1,8.3272-1.8447,16.23,16.23,0,0,1,8.1777,2.0449,10.6249,10.6249,0,0,1,5.2353,6.4326,20.977,20.977,0,0,1,7.28-6.0341,19.3212,19.3212,0,0,1,9.0264-2.4434q6.5815,0,10.7207,3.042a11.4567,11.4567,0,0,1,4.6875,9.8232q0,2.644-.15,7.9532-.1494,5.3115-.1494,7.9541,0,3.1406.1494,9.4492T639.53,411.32Z"/>
            <path d="M699.1179,388.2319q0,3.8409.4492,11.42t.4482,11.3692q0,1.9951-1.7451,2.1435-6.1832.45-14.1611.4492-.9477,0-1.2715-2.8671t-.7734-2.917a4.59,4.59,0,0,0-1.0469.8476q-5.5854,5.6353-11.9678,5.6348a20.0641,20.0641,0,0,1-16.1064-7.68A25.7972,25.7972,0,0,1,646.91,389.479q0-11.518,6.2324-18.55,6.482-7.28,17.7519-7.28,7.8282,0,12.3672,5.4854c.1319.1669.2491.249.3487.249q.4482,0,1.0224-2.418t1.3711-2.4189a43.8411,43.8411,0,0,1,7.0313,1.0478,71.0746,71.0746,0,0,1,7.08,1.6953q.7486.2988.7481.7979a8.9774,8.9774,0,0,1-.1494,1.0469A109.5718,109.5718,0,0,0,699.1179,388.2319Zm-16.0567.3a9.6862,9.6862,0,0,0-2.6679-7.0058,10.1275,10.1275,0,0,0-13.8868-.0254,10.326,10.326,0,0,0,.1495,13.9619,9.0719,9.0719,0,0,0,6.7812,2.8926,9.25,9.25,0,0,0,6.9317-2.7676A9.699,9.699,0,0,0,683.0612,388.5317Z"/>
            <path d="M742.1013,382.0991q0,1.9438-2.1446,1.9443-.9477,0-2.7675-.124t-2.7168-.125q-4.14,0-5.6348,1.2969-1.497,1.2963-1.4961,5.2353,0,2.1446.0742,6.5079t.0752,6.5068q0,1.4472.1992,4.3135.1993,2.8681.2,4.2636,0,1.1968-1.6464,1.3457-2.3922.1993-7.33.2-4.7373,0-7.5791-.3-1.645-.1977-1.6455-1.6455,0-3.9888.05-11.9424t.05-11.9423q0-11.7174-2.1436-19.2979a3.5172,3.5172,0,0,1-.1006-.748.9776.9776,0,0,1,.7481-.9971q2.7422-.2988,8.0283-1.0977,7.878-1.544,8.1279-1.5459.8981,0,1.1475,3.1416t.8975,3.1416q-.6989,0,4.0888-2.6172a19.2116,19.2116,0,0,1,9.2246-2.6181q2.7921,0,2.793,1.1963a38.7849,38.7849,0,0,1-.3,4.0888q-.2988,2.8432-.3486,4.0889,0,1.4474.05,3.84Q742.1013,381.1524,742.1013,382.0991Z"/>
            <path d="M781.2946,398.5542a40.791,40.791,0,0,1-.374,4.5381,40.9531,40.9531,0,0,0-.374,4.4629,3.5105,3.5105,0,0,1-.2988,1.82,6.0552,6.0552,0,0,1-1.6455,1.1465,29.0825,29.0825,0,0,1-14.2618,3.54q-14.4111,0-14.41-11.0195,0-3.2916.249-9.8985t.249-9.8984q0-2.1929-2.5429-2.1934h-.6485c-.2988.0332-.5156.05-.6474.05q-1.8971,0-1.8956-1.3467,0-.7968.125-2.4433.1232-1.645.125-2.4434,0-1.0473-.125-3.1914t-.125-3.1914q0-.996,3.1915-1.0967,1.7958-.05,1.9453-.997a36.8479,36.8479,0,0,0,.1992-5.9844q-.2007-6.4321-.1992-6.1328,0-5.7847,1.0966-5.7852a17.8536,17.8536,0,0,1,3.84.5987,35.5913,35.5913,0,0,0,3.9394.748q2.5431.35,7.6788.9473,1.2465.1011,1.247.8476,0,1.9952-.3242,6.0342t-.3242,6.083q0,2.4449,1.4463,2.4434,1.7446,0,5.2851-.1494t5.336-.15q1.0956,0,1.0966.7481,0,1.1469-.249,3.44t-.25,3.44q0,1.1967.05,3.4912t.0508,3.49q0,1.0473-1.4463,1.0469-.999,0-3.3408-.0742-2.3452-.0748-3.3418-.0752h-3.7393q-.7485,0-.748,2.1943v3.54q.0483,2.3936.05,3.54,0,4.1894.9473,5.7851,1.3461,2.1446,5.2861,2.1436a16.0747,16.0747,0,0,0,3.5654-.5733,16.0385,16.0385,0,0,1,3.2657-.5732Q781.2951,397.4575,781.2946,398.5542Z"/>
            <path d="M886.76,411.6186q0,1.5469-1.4453,1.5459H867.6618q-1.4472,0-1.4463-1.7451,0-5.0361.3741-15.1094.3735-10.0707.374-15.1084,0-1.4457-.4492-1.5459-.5494.2989-6.6817,15.4082-3.59,8.8755-7.1806,17.7022a2.1027,2.1027,0,0,1-1.2461,1.3457,19.6767,19.6767,0,0,1-1.9952.05q-2.5927,0-3.0908-.9971-2.6939-5.4843-7.081-15.956-4.6875-11.0713-7.0313-16.0069a1.57,1.57,0,0,0-.4482-.5488,2.3656,2.3656,0,0,0-.35,1.4463q0,4.8867.249,14.66t.25,14.66q0,1.7462-1.3965,1.7451H813.8571c-.665,0-1.0713-.1074-1.2216-.3242a2.0637,2.0637,0,0,1-.2237-1.1221q0-5.433.5235-16.33t.5234-16.3311q0-5.7833-.499-21.6914-.05-4.1382-.4483-12.3164l-.05-.8477q-.0513-.996,2.0938-.997,2.7422,0,8.2275-.1748t8.2285-.1748q.548,0,1.5459,2.0947l14.5606,31.9629q1.5439,3.2432,2.5927,3.2412.548,0,2.3438-3.7393,5.0346-10.4721,14.9092-31.5644.8466-1.9453,1.8447-1.9444,1.4458,0,4.3633.1495t4.4131.1494q1.2465,0,3.8144-.2491t3.8155-.25q1.4955,0,1.4951,1.1973,0,5.8843-.4239,17.5772t-.4238,17.5771q0,5.436.4492,16.3057Q886.76,406.2348,886.76,411.6186Z"/>
            <path d="M943.655,388.6313q0,11.3687-6.9561,18.45t-18.2754,7.08q-10.97,0-18.0507-6.9805T893.2917,389.23q0-11.568,6.7822-18.7745t18.35-7.205q11.269,0,18.251,7.0556Q943.6545,377.3623,943.655,388.6313Zm-16.3555,0a10.7366,10.7366,0,0,0-2.4433-6.956,7.7726,7.7726,0,0,0-6.3331-3.0166,8.03,8.03,0,0,0-6.4824,3.0908,11.1618,11.1618,0,0,0,0,13.8135,8.2912,8.2912,0,0,0,12.9151,0A10.664,10.664,0,0,0,927.3,388.6313Z"/>
            <path d="M1003.7419,388.7807q0,10.4722-5.9834,17.503a20.8537,20.8537,0,0,1-16.6553,7.4795q-7.4795,0-12.0674-4.2881a1.0025,1.0025,0,0,0-.5986-.3q-.498,0-.9219,1.8457t-1.0224,2.0439q-.8482.249-14.2119.249-3.1407,0-3.1407-1.1464a6.35,6.35,0,0,1,.1-.7481q.9961-7.9276.9971-30.2178,0-21.2914-1.4961-37.05l-.05-.5488q0-.7968,1.5459-.8975,1.0958-.0483,8.6768-.748,5.3349-.498,8.6758-.498.9477,0,.9482,1.6455,0,1.9438-.25,5.1357-.2988,3.94-.3486,5.1855-.2505,4.938-.25,13.4639,0,1.5469.7978,1.5459a.997.997,0,0,0,.7481-.3984,15.3823,15.3823,0,0,1,11.7685-4.7871q10.92,0,17.0537,7.43Q1003.7425,377.5606,1003.7419,388.7807Zm-18.0508-.5488a10.1842,10.1842,0,0,0-2.543-7.0058,8.45,8.45,0,0,0-6.6328-2.8672,8.1851,8.1851,0,0,0-6.6064,2.8672,10.6427,10.6427,0,0,0-2.419,7.1064,10.3974,10.3974,0,0,0,2.3438,7.08,8.5551,8.5551,0,0,0,6.7812,2.8427,8.37,8.37,0,0,0,6.7325-2.9423A10.5217,10.5217,0,0,0,985.6911,388.2319Z"/>
            <path d="M1028.2761,390.2768q0,3.64.1494,10.8457t.1494,10.7959q0,1.0474-1.2461,1.2461a97.8612,97.8612,0,0,1-15.3086,0q-1.0971-.1977-1.3467-.6484a5.679,5.679,0,0,1-.1-1.4951q0-3.441.1494-10.3477t.15-10.3965a182.09,182.09,0,0,0-1.0976-22.539q-.1-.7969-.1-1.0469,0-.9975,1.3466-.9971,1.3946,0,4.2627.2989t4.3135.2988q1.4459,0,4.3389-.249,2.8915-.2492,4.3379-.2491,1.1967,0,1.1963.9971c0,.1328-.0332.4492-.1.9473A203.5445,203.5445,0,0,0,1028.2761,390.2768Zm1.2969-37.05q0,8.6763-9.7735,8.6768a10.7389,10.7389,0,0,1-6.9316-2.1943,8.3221,8.3221,0,0,1,.1-12.8653,10.54,10.54,0,0,1,6.832-2.293,10.2537,10.2537,0,0,1,6.7315,2.3428A7.8415,7.8415,0,0,1,1029.573,353.227Z"/>
            <path d="M1056.0505,383.146q0,13.6128.1,20.8935,0,1.1471.1494,3.94.1494,2.543.1494,3.9394,0,1.0474-1.2461,1.2461a54.1721,54.1721,0,0,1-8.0781.3994,43.0936,43.0936,0,0,1-7.63-.3994,1.4814,1.4814,0,0,1-1.2461-1.3457v-2.1445q0-4.437.1-13.2891.1-8.8506.1-13.2392,0-20.9429.05-19.0977a157.5252,157.5252,0,0,0-1.2471-18.999,5.1019,5.1019,0,0,1-.1-.8477q0-1.0956,1.2969-1.0966H1056.25q1.2451,0,1.1465,1.0468l-.05.8975Q1056.05,366.5912,1056.0505,383.146Z"/>
            <path d="M1110.8523,386.0884q0,5.0361-3.2413,5.7343-.5493.1011-10.3222,1.0967-5.8844.6489-17.5528,1.5459a7.07,7.07,0,0,0,4.2383,4.9365,14.9421,14.9421,0,0,0,6.583,1.3965,18.84,18.84,0,0,0,8.9258-2.3935q1.894-1.1969,3.7891-2.3936,1.0473.5,3.5156,5.0859,2.4682,4.5894,2.4687,5.835,0,.3486-.748,1.1465-6.0849,6.5333-18.8994,6.5322-11.8682,0-19.1475-6.9316-7.4795-7.03-7.48-18.7989,0-11.4682,6.6817-18.7988,6.88-7.5791,18.25-7.5791a21.6586,21.6586,0,0,1,16.2558,6.98A23.1931,23.1931,0,0,1,1110.8523,386.0884Zm-17.4532-3.042a7.7131,7.7131,0,0,0-2.1943-5.4356,6.9323,6.9323,0,0,0-5.2354-2.3437,6.2914,6.2914,0,0,0-5.1855,2.6435,9.0778,9.0778,0,0,0-1.8955,5.7344q0,1.3463,1.3965,1.3457a87.373,87.373,0,0,0,11.4687-1.1465Q1093.3987,383.5952,1093.3991,383.0464Z"/>
            <path d="M1187.1452,413.9624q-2.9428,0-8.8262-.2988t-8.8261-.3q-4.188,0-12.5156-.1-8.3292-.1-12.5167-.1-1.7943,0-2.0439-1.1465a94.4808,94.4808,0,0,0-.9971-9.4746,25.9156,25.9156,0,0,1-.5986-2.7422q0-.249,12.2168-19.3232,12.2167-19.0722,12.2168-20.5185,0-.7984-1.2959-.7979-3.4921,0-10.5469.1992t-10.5967.1992q-1.0971,0-1.0966-1.1464a43.5789,43.5789,0,0,1,1.122-7.1807,42.7176,42.7176,0,0,0,1.1221-7.7295q0-.7969,1.3457-.7979,6.8818,0,20.669.3t20.67.2989a1.32,1.32,0,0,1,1.3457,1.1465,55.2783,55.2783,0,0,1,.8974,11.42,4.36,4.36,0,0,1-.8974,2.2431q-3.1407,4.5381-13.2139,20.0459-11.47,17.7027-11.4687,18.55c0,.2666.2822.3984.8476.3984q10.1221,0,15.5576-.3984,1.0957-.05,4.7871-.5987a32.9594,32.9594,0,0,1,4.6377-.498q.6973,0,.6973,1.0468a91.8081,91.8081,0,0,1-1.4453,16.2061A1.17,1.17,0,0,1,1187.1452,413.9624Z"/>
            <path d="M1244.988,388.6313q0,11.3687-6.9561,18.45t-18.2754,7.08q-10.97,0-18.0507-6.9805t-7.0811-17.9511q0-11.568,6.7822-18.7745t18.35-7.205q11.269,0,18.251,7.0556Q1244.9875,377.3623,1244.988,388.6313Zm-16.3555,0a10.7366,10.7366,0,0,0-2.4433-6.956,7.7725,7.7725,0,0,0-6.333-3.0166,8.03,8.03,0,0,0-6.4825,3.0908,11.1618,11.1618,0,0,0,0,13.8135,8.2912,8.2912,0,0,0,12.9151,0A10.664,10.664,0,0,0,1228.6325,388.6313Z"/>
            <path d="M1300.5876,411.7182a1.4263,1.4263,0,0,1-1.3955,1.5459q-1.3974.1993-7.28.2a56.9285,56.9285,0,0,1-7.7793-.3,1.81,1.81,0,0,1-1.4961-2.0439q0-2.3437.1494-7.0811.1509-4.7373.15-7.1308,0-1.8443-.1-5.51-.1011-3.6651-.1006-5.51,0-6.8319-5.9336-6.832a8.6641,8.6641,0,0,0-4.538,1.6953q-2.7921,1.8955-2.792,3.74v26.9267a1.6338,1.6338,0,0,1-1.5459,1.8447q-1.7461.1993-7.1309.2a58.063,58.063,0,0,1-7.5791-.3,1.5688,1.5688,0,0,1-1.5459-1.6455q0-3.8892.05-11.7178t.05-11.7685q0-12.4161-1.9443-19.4971a3.5068,3.5068,0,0,1-.1-.748,1.0924,1.0924,0,0,1,.748-1.0967q3.1407-.3486,8.377-1.0967,7.9277-1.5455,8.9258-1.5459.5478,0,.8476,3.3653t.8477,3.3662q-.5493,0,5.36-3.4659,5.9093-3.4642,10.3467-3.4658a17.8821,17.8821,0,0,1,10.5713,2.9922,11.166,11.166,0,0,1,4.7373,9.5742v15.9073q0,3.2416.05,9.6982Q1300.5876,408.4786,1300.5876,411.7182Z"/>
            <path d="M1354.5915,386.0884q0,5.0361-3.2412,5.7343-.5493.1011-10.3223,1.0967-5.8842.6489-17.5527,1.5459a7.0692,7.0692,0,0,0,4.2383,4.9365,14.9415,14.9415,0,0,0,6.583,1.3965,18.84,18.84,0,0,0,8.9258-2.3935q1.894-1.1969,3.789-2.3936,1.0475.5,3.5157,5.0859,2.4683,4.5894,2.4687,5.835,0,.3486-.748,1.1465-6.0851,6.5333-18.8995,6.5322-11.8682,0-19.1474-6.9316-7.4795-7.03-7.48-18.7989,0-11.4682,6.6816-18.7988,6.88-7.5791,18.25-7.5791a21.6589,21.6589,0,0,1,16.2559,6.98A23.193,23.193,0,0,1,1354.5915,386.0884Zm-17.4531-3.042a7.7133,7.7133,0,0,0-2.1944-5.4356,6.9321,6.9321,0,0,0-5.2353-2.3437,6.2917,6.2917,0,0,0-5.1856,2.6435,9.0784,9.0784,0,0,0-1.8955,5.7344q0,1.3463,1.3965,1.3457a87.3742,87.3742,0,0,0,11.4688-1.1465Q1337.138,383.5952,1337.1384,383.0464Z"/>
          </g>
        </g>
      </g>
    </g>
  </g>
</svg>
