<svg xmlns="http://www.w3.org/2000/svg" viewBox="0 0 370 370">
  <defs>
    <style>
      .cls-1 {
        fill: #b70000;
      }
    </style>
  </defs>
  <g id="Layer_2" data-name="Layer 2">
    <g id="Layer_1-2" data-name="Layer 1">
      <path class="cls-1" d="M370,184.96A59.8645,59.8645,0,0,0,326.2494,127.29q-.3049-.7454-.618-1.4864a59.858,59.858,0,0,0-81.5543-81.4848q-.7724-.3246-1.5485-.6419a59.8581,59.8581,0,0,0-115.2852.0929q-.745.3051-1.4863.618A59.858,59.858,0,0,0,44.3,125.97q-.3114.7415-.6162,1.4862a59.8581,59.8581,0,0,0,.08,115.2851q.305.7453.618,1.4864a59.858,59.858,0,0,0,81.5725,81.4665q.7415.3116,1.4862.6165a59.858,59.858,0,0,0,115.285-.0674q.7453-.305,1.4864-.618a59.858,59.858,0,0,0,81.4756-81.5634q.3117-.7414.6168-1.4862A59.8655,59.8655,0,0,0,370,184.96Z"/>
    </g>
  </g>
</svg>
