<svg id="Layer_1" data-name="Layer 1" xmlns="http://www.w3.org/2000/svg" viewBox="0 0 912.0001 912">
  <defs>
    <style>
      .cls-1 {
        fill: #36a508;
      }
    </style>
  </defs>
  <path class="cls-1" d="M956,499.9009a147.5583,147.5583,0,0,0-107.84-142.1476q-.7514-1.8371-1.5231-3.6636a147.542,147.542,0,0,0-201.02-200.849q-1.9036-.8-3.8169-1.5823a147.542,147.542,0,0,0-284.1623.229q-1.8366.7519-3.6635,1.5232A147.5419,147.5419,0,0,0,153.1928,354.4981q-.7676,1.8274-1.519,3.6633a147.5421,147.5421,0,0,0,.1976,284.1622q.7517,1.8369,1.5232,3.6636A147.542,147.542,0,0,0,354.46,846.7913q1.8276.7678,3.6634,1.5195a147.542,147.542,0,0,0,284.162-.1662q1.837-.7515,3.6637-1.5232A147.542,147.542,0,0,0,846.7752,645.5786q.7681-1.8274,1.52-3.6634A147.56,147.56,0,0,0,956,499.9009Z" transform="translate(-44 -44)"/>
</svg>
