<svg xmlns="http://www.w3.org/2000/svg" viewBox="0 0 436.1105 474.0478">
  <defs>
    <style>
      .cls-1 {
        fill: #0010d2;
      }
    </style>
  </defs>
  <g id="Layer_2" data-name="Layer 2">
    <g id="Layer_1-2" data-name="Layer 1">
      <g>
        <path class="cls-1" d="M267.8634,263.2356c14.2047-19.9222,27.9043-38.9926,41.4483-58.1729,12.7523-18.0594,25.4967-36.1289,37.89-54.4338,3.0627-4.5234,6.6841-5.9679,11.745-5.9323,16.2314.1142,32.4645-.0086,48.6962.0844,2.3741.0136,5.46-1.1512,6.9668,1.374,1.7677,2.9627-.6666,5.5935-2.2377,7.7874-16.6949,23.3117-33.6593,46.431-50.294,69.7853-17.9549,25.2076-36.4244,50.0723-54.0679,75.4472a107.2566,107.2566,0,0,1-19.5169,21.2578c-18.9126,15.7738-43.6341,9.5161-58.56-13.2233-20.4082-31.0908-40.6925-62.2688-61.5627-93.048-11.7055-17.2634-29.5176-22.9538-49.55-22.9572q-53.0251-.0088-106.05.13a59.7215,59.7215,0,0,1-6.4831.03c-4.8221-.5237-5.22-2.6272-2.3829-6.3861,7.9454-10.5258,15.8619-21.083,23.4315-31.8791,4.2941-6.1244,9.3038-8.8232,17.1175-8.5334,34.2105,1.2694,68.5955-2.3122,102.6567,2.3238,29.7426,4.0481,53.4423,18.2165,70.6171,43.8776C233.795,214.7757,248.8783,239.55,267.8634,263.2356Z"/>
        <path d="M69.6967,324.8323c-19.8136,0-39.6322-.2545-59.438.1357-7.0976.14-10.2235-1.2657-10.1216-9.3615.3947-31.3358.23-62.6827-.1342-94.0208-.0788-6.7828,1.394-9.7786,8.8822-9.4523,12.5841.5486,25.23.5411,37.8118-.0476,7.4518-.3486,9.0973,2.4752,8.8976,9.3593-.47,16.1979.0224,32.4217-.2859,48.6272-.12,6.2949,1.5136,8.97,8.4735,8.8083,19.4429-.4523,39.041,1.2774,58.3189-.5645,21.03-2.0093,42.3748-5.7214,48.3068-32.2029,1.2073-5.39,5.7662-2.2729,7.9463.7874,9.3331,13.1013,18.47,26.3426,27.7137,39.5074,1.9975,2.8446,1.7315,4.9581-1.0021,7.3958-12.1664,10.8495-26.0718,18.4844-41.2655,24.306-15.8174,6.06-32.1206,6.9806-48.7127,6.8233-15.129-.1434-30.26-.03-45.3908-.03Z"/>
        <path d="M346.09,49.0453C234.41-4.2457,131.476,16.8576,55.6437,111.6209c-5.1053,6.38-9.9962,9.6034-18.2883,9.0922-11.0466-.681-22.167-.1682-37.16-.1682C45.4051,47.8261,106.85,7.8814,188.605.93,247.5111-4.078,300.8867,11.0191,346.09,49.0453Z"/>
        <path d="M5.5716,350.8348c28.3108-3.9078,47.0706,1.933,69.4755,22.7636,49.4491,45.9744,111.545,60.8107,179.0249,41.0526,6.7986-1.9907,13.1917-7.1055,21.1724-4.3861C211.935,462.0166,68.8363,451.5488,5.5716,350.8348Z"/>
        <path class="cls-1" d="M125.8163,63.4224C217.8871,8.0507,338.2851,32.1095,398.571,120.66c-23.4282-1.8384-44.1467,7.0053-63.0022-14.5992C306.5223,72.7792,266.8133,57.418,223.3439,52.997c-27.4182-2.7886-54.71-.9268-80.6627,10.2141C137.4767,65.4452,131.6068,66.7594,125.8163,63.4224Z"/>
        <path class="cls-1" d="M425.6176,172.4124c-12.2925,23.5258-33.9558,36.7889-34.5111,59.783-.8557,35.4312-8.8366,68.9251-22.1986,101.27-.9456.8973.565-1.0933,0,0-58.359,112.9025-206.2865,155.3253-313.5207,84.1208-4.173-2.7712-8.4025-6.03-14.3-4.2554,109.2477,104.68,312.0462,72.3558,375.8628-84.2278C438.0545,279.77,442.8754,229.5516,425.6176,172.4124Z"/>
      </g>
    </g>
  </g>
</svg>
